# xmcd
#
# Track frame offsets:
#	150
#	20012
#	39520
#	56110
#	70793
#	86696
#	102688
#	117268
#	131597
#	148404
#
# Disc length: 2144 seconds
# Revision: 0
# Processed by: cddbd v1.5.2PL0 Copyright (c) Steve Scherf et al.
# Submitted via: dBpowerAMP V12.0
#
DISCID=98085e0a
DTITLE=Frank Fara - Songs Of The Untamed West
DYEAR=2008
DGENRE=Country
TTITLE0=Charming Billy - Billy The Kid
TTITLE1=Custer's Last Command
TTITLE2=Pancho Villa Rides Again
TTITLE3=Isom Dart - A Black Cowboy
TTITLE4=The Daltons At Coffeyville
TTITLE5=Tombstone Legacy
TTITLE6=Tips For Stagecoach Travellers
TTITLE7=The Saga Of Diamondfield Jack
TTITLE8=Donner Pass
TTITLE9=Sedona Serenade
EXTD=
EXTT0=
EXTT1=
EXTT2=
EXTT3=
EXTT4=
EXTT5=
EXTT6=
EXTT7=
EXTT8=
EXTT9=
PLAYORDER=
